<svg xmlns="http://www.w3.org/2000/svg" viewBox="0 0 33.78 151.9"><defs><style>.cls-1{fill:#1d1d1b;}</style></defs><g id="Capa_2" data-name="Capa 2"><g id="Capa_4" data-name="Capa 4"><path class="cls-1" d="M23.72,5V64.12l1.46-3.53L11.86,73.91,3.69,82.08C1.93,83.84.15,85.26.07,88c-.15,5.36,0,10.75,0,16.11v26.48c0,5.34-.12,10.68,0,16v.26a5.06,5.06,0,0,0,5,5,5.09,5.09,0,0,0,5-5V87.77L8.6,91.31,21.92,78l8.17-8.17c1.77-1.76,3.55-3.18,3.63-6,.15-5.36,0-10.75,0-16.11V21.26c0-5.33.12-10.67,0-16a2.08,2.08,0,0,1,0-.25,5,5,0,0,0-10,0Z"/></g></g></svg>